<mxfile host="app.diagrams.net" modified="2024-05-25T10:30:41.171Z" agent="Mozilla/5.0 (Windows NT 10.0; Win64; x64) AppleWebKit/537.36 (KHTML, like Gecko) Chrome/124.0.0.0 Safari/537.36" etag="VyN6EJFWBKDiU-VPHlS5" version="24.4.8" type="device">
  <diagram name="Page-1" id="mCAS3zWS1jq8F9CTMOA5">
    <mxGraphModel dx="623" dy="1061" grid="0" gridSize="10" guides="1" tooltips="1" connect="1" arrows="1" fold="1" page="1" pageScale="1" pageWidth="1600" pageHeight="900" background="#ffffff" math="0" shadow="0">
      <root>
        <mxCell id="0" />
        <mxCell id="1" parent="0" />
        <mxCell id="n9SyXKmSAYaJPbStBQAH-39" style="edgeStyle=orthogonalEdgeStyle;rounded=0;orthogonalLoop=1;jettySize=auto;html=1;exitX=0;exitY=0.25;exitDx=0;exitDy=0;entryX=1;entryY=0.25;entryDx=0;entryDy=0;" edge="1" parent="1" source="n9SyXKmSAYaJPbStBQAH-7" target="n9SyXKmSAYaJPbStBQAH-17">
          <mxGeometry relative="1" as="geometry">
            <Array as="points">
              <mxPoint x="280" y="190" />
              <mxPoint x="280" y="375" />
            </Array>
          </mxGeometry>
        </mxCell>
        <mxCell id="n9SyXKmSAYaJPbStBQAH-35" style="edgeStyle=orthogonalEdgeStyle;rounded=0;orthogonalLoop=1;jettySize=auto;html=1;exitX=1;exitY=0.75;exitDx=0;exitDy=0;entryX=0;entryY=0.5;entryDx=0;entryDy=0;" edge="1" parent="1" source="n9SyXKmSAYaJPbStBQAH-17" target="n9SyXKmSAYaJPbStBQAH-27">
          <mxGeometry relative="1" as="geometry">
            <mxPoint x="350" y="510" as="targetPoint" />
            <Array as="points">
              <mxPoint x="360" y="405" />
              <mxPoint x="360" y="540" />
            </Array>
          </mxGeometry>
        </mxCell>
        <mxCell id="n9SyXKmSAYaJPbStBQAH-38" style="edgeStyle=orthogonalEdgeStyle;rounded=0;orthogonalLoop=1;jettySize=auto;html=1;exitX=1;exitY=0.75;exitDx=0;exitDy=0;entryX=0;entryY=0.5;entryDx=0;entryDy=0;" edge="1" parent="1" source="n9SyXKmSAYaJPbStBQAH-17" target="n9SyXKmSAYaJPbStBQAH-7">
          <mxGeometry relative="1" as="geometry">
            <Array as="points">
              <mxPoint x="360" y="405" />
              <mxPoint x="360" y="240" />
            </Array>
          </mxGeometry>
        </mxCell>
        <mxCell id="n9SyXKmSAYaJPbStBQAH-64" style="edgeStyle=orthogonalEdgeStyle;rounded=0;orthogonalLoop=1;jettySize=auto;html=1;exitDx=0;exitDy=0;entryX=0;entryY=0.25;entryDx=0;entryDy=0;" edge="1" parent="1" source="n9SyXKmSAYaJPbStBQAH-74" target="n9SyXKmSAYaJPbStBQAH-42">
          <mxGeometry relative="1" as="geometry">
            <Array as="points">
              <mxPoint x="830" y="460" />
              <mxPoint x="830" y="515" />
            </Array>
          </mxGeometry>
        </mxCell>
        <mxCell id="n9SyXKmSAYaJPbStBQAH-76" style="edgeStyle=orthogonalEdgeStyle;rounded=0;orthogonalLoop=1;jettySize=auto;html=1;exitX=1;exitY=0.5;exitDx=0;exitDy=0;entryX=0;entryY=0.5;entryDx=0;entryDy=0;" edge="1" parent="1" source="n9SyXKmSAYaJPbStBQAH-17" target="n9SyXKmSAYaJPbStBQAH-43">
          <mxGeometry relative="1" as="geometry">
            <Array as="points">
              <mxPoint x="600" y="390" />
              <mxPoint x="600" y="420" />
            </Array>
          </mxGeometry>
        </mxCell>
        <mxCell id="n9SyXKmSAYaJPbStBQAH-121" style="edgeStyle=orthogonalEdgeStyle;rounded=0;orthogonalLoop=1;jettySize=auto;html=1;exitX=1.005;exitY=0.903;exitDx=0;exitDy=0;entryX=0.5;entryY=0;entryDx=0;entryDy=0;exitPerimeter=0;" edge="1" parent="1" source="n9SyXKmSAYaJPbStBQAH-17" target="n9SyXKmSAYaJPbStBQAH-110">
          <mxGeometry relative="1" as="geometry">
            <Array as="points">
              <mxPoint x="280" y="414" />
              <mxPoint x="280" y="590" />
              <mxPoint x="460" y="590" />
            </Array>
          </mxGeometry>
        </mxCell>
        <mxCell id="n9SyXKmSAYaJPbStBQAH-17" value="Character" style="rounded=0;whiteSpace=wrap;html=1;" vertex="1" parent="1">
          <mxGeometry x="150" y="360" width="100" height="60" as="geometry" />
        </mxCell>
        <mxCell id="n9SyXKmSAYaJPbStBQAH-31" style="edgeStyle=orthogonalEdgeStyle;rounded=0;orthogonalLoop=1;jettySize=auto;html=1;exitX=0;exitY=0;exitDx=0;exitDy=50;exitPerimeter=0;entryX=0.5;entryY=1;entryDx=0;entryDy=0;" edge="1" parent="1" source="n9SyXKmSAYaJPbStBQAH-19" target="n9SyXKmSAYaJPbStBQAH-17">
          <mxGeometry relative="1" as="geometry" />
        </mxCell>
        <mxCell id="n9SyXKmSAYaJPbStBQAH-93" style="edgeStyle=orthogonalEdgeStyle;rounded=0;orthogonalLoop=1;jettySize=auto;html=1;exitX=0;exitY=0;exitDx=60;exitDy=55;exitPerimeter=0;entryX=0.75;entryY=0;entryDx=0;entryDy=0;" edge="1" parent="1" source="n9SyXKmSAYaJPbStBQAH-20" target="n9SyXKmSAYaJPbStBQAH-43">
          <mxGeometry relative="1" as="geometry">
            <Array as="points">
              <mxPoint x="1355" y="370" />
              <mxPoint x="1095" y="370" />
            </Array>
          </mxGeometry>
        </mxCell>
        <mxCell id="n9SyXKmSAYaJPbStBQAH-20" value="char_spr (RAM)" style="verticalAlign=top;align=left;spacingTop=8;spacingLeft=2;spacingRight=12;shape=cube;size=10;direction=south;fontStyle=4;html=1;whiteSpace=wrap;" vertex="1" parent="1">
          <mxGeometry x="1310" y="260" width="100" height="60" as="geometry" />
        </mxCell>
        <mxCell id="n9SyXKmSAYaJPbStBQAH-30" style="edgeStyle=orthogonalEdgeStyle;rounded=0;orthogonalLoop=1;jettySize=auto;html=1;exitX=1;exitY=0.5;exitDx=0;exitDy=0;exitPerimeter=0;" edge="1" parent="1" source="n9SyXKmSAYaJPbStBQAH-21" target="n9SyXKmSAYaJPbStBQAH-17">
          <mxGeometry relative="1" as="geometry" />
        </mxCell>
        <mxCell id="n9SyXKmSAYaJPbStBQAH-21" value="Buttons" style="html=1;shadow=0;dashed=0;align=center;verticalAlign=middle;shape=mxgraph.arrows2.arrow;dy=0;dx=10;notch=0;" vertex="1" parent="1">
          <mxGeometry x="10" y="375" width="70" height="30" as="geometry" />
        </mxCell>
        <mxCell id="n9SyXKmSAYaJPbStBQAH-23" value="Screen" style="html=1;shadow=0;dashed=0;align=center;verticalAlign=middle;shape=mxgraph.arrows2.arrow;dy=0;dx=10;notch=0;direction=west;" vertex="1" parent="1">
          <mxGeometry x="1480" y="515" width="100" height="30" as="geometry" />
        </mxCell>
        <mxCell id="n9SyXKmSAYaJPbStBQAH-24" value="7-seg Display" style="html=1;shadow=0;dashed=0;align=center;verticalAlign=middle;shape=mxgraph.arrows2.arrow;dy=0;dx=10;notch=0;direction=west;" vertex="1" parent="1">
          <mxGeometry x="1480" y="670" width="100" height="30" as="geometry" />
        </mxCell>
        <mxCell id="n9SyXKmSAYaJPbStBQAH-25" value="Speaker" style="html=1;shadow=0;dashed=0;align=center;verticalAlign=middle;shape=mxgraph.arrows2.arrow;dy=0;dx=10;notch=0;direction=west;" vertex="1" parent="1">
          <mxGeometry x="1480" y="785" width="100" height="30" as="geometry" />
        </mxCell>
        <mxCell id="n9SyXKmSAYaJPbStBQAH-42" value="VGA Control" style="rounded=0;whiteSpace=wrap;html=1;" vertex="1" parent="1">
          <mxGeometry x="1020" y="500" width="100" height="60" as="geometry" />
        </mxCell>
        <mxCell id="n9SyXKmSAYaJPbStBQAH-108" style="edgeStyle=orthogonalEdgeStyle;rounded=0;orthogonalLoop=1;jettySize=auto;html=1;exitX=0.25;exitY=1;exitDx=0;exitDy=0;entryX=0.25;entryY=0;entryDx=0;entryDy=0;" edge="1" parent="1" source="n9SyXKmSAYaJPbStBQAH-43" target="n9SyXKmSAYaJPbStBQAH-42">
          <mxGeometry relative="1" as="geometry" />
        </mxCell>
        <mxCell id="n9SyXKmSAYaJPbStBQAH-43" value="Sprite Control" style="rounded=0;whiteSpace=wrap;html=1;" vertex="1" parent="1">
          <mxGeometry x="1020" y="390" width="100" height="60" as="geometry" />
        </mxCell>
        <mxCell id="n9SyXKmSAYaJPbStBQAH-44" value="Game Calculations" style="swimlane;whiteSpace=wrap;html=1;" vertex="1" parent="1">
          <mxGeometry x="120" y="70" width="680" height="560" as="geometry" />
        </mxCell>
        <mxCell id="n9SyXKmSAYaJPbStBQAH-27" value="Scrolling" style="rounded=0;whiteSpace=wrap;html=1;" vertex="1" parent="n9SyXKmSAYaJPbStBQAH-44">
          <mxGeometry x="400" y="440" width="100" height="60" as="geometry" />
        </mxCell>
        <mxCell id="n9SyXKmSAYaJPbStBQAH-7" value="Objects" style="swimlane;whiteSpace=wrap;html=1;" vertex="1" parent="n9SyXKmSAYaJPbStBQAH-44">
          <mxGeometry x="270" y="70" width="380" height="200" as="geometry">
            <mxRectangle x="560" y="10" width="80" height="30" as="alternateBounds" />
          </mxGeometry>
        </mxCell>
        <mxCell id="n9SyXKmSAYaJPbStBQAH-1" value="Star Control" style="rounded=0;whiteSpace=wrap;html=1;" vertex="1" parent="n9SyXKmSAYaJPbStBQAH-7">
          <mxGeometry x="20" y="40" width="100" height="60" as="geometry" />
        </mxCell>
        <mxCell id="n9SyXKmSAYaJPbStBQAH-10" value="Goomba&lt;div&gt;Control&lt;/div&gt;" style="rounded=0;whiteSpace=wrap;html=1;" vertex="1" parent="n9SyXKmSAYaJPbStBQAH-7">
          <mxGeometry x="20" y="120" width="100" height="60" as="geometry" />
        </mxCell>
        <mxCell id="n9SyXKmSAYaJPbStBQAH-11" value="Ice Mushroom&lt;div&gt;Control&lt;/div&gt;" style="rounded=0;whiteSpace=wrap;html=1;" vertex="1" parent="n9SyXKmSAYaJPbStBQAH-7">
          <mxGeometry x="140" y="40" width="100" height="60" as="geometry" />
        </mxCell>
        <mxCell id="n9SyXKmSAYaJPbStBQAH-12" value="Fire Flower&lt;div&gt;Control&lt;/div&gt;" style="rounded=0;whiteSpace=wrap;html=1;" vertex="1" parent="n9SyXKmSAYaJPbStBQAH-7">
          <mxGeometry x="140" y="120" width="100" height="60" as="geometry" />
        </mxCell>
        <mxCell id="n9SyXKmSAYaJPbStBQAH-13" value="Flying Mushroom&lt;div&gt;Control&lt;/div&gt;" style="rounded=0;whiteSpace=wrap;html=1;" vertex="1" parent="n9SyXKmSAYaJPbStBQAH-7">
          <mxGeometry x="260" y="40" width="100" height="60" as="geometry" />
        </mxCell>
        <mxCell id="n9SyXKmSAYaJPbStBQAH-14" value="Koopa Troopa&lt;div&gt;Control&lt;/div&gt;" style="rounded=0;whiteSpace=wrap;html=1;" vertex="1" parent="n9SyXKmSAYaJPbStBQAH-7">
          <mxGeometry x="260" y="120" width="100" height="60" as="geometry" />
        </mxCell>
        <mxCell id="n9SyXKmSAYaJPbStBQAH-41" value="all object status" style="text;html=1;align=center;verticalAlign=middle;whiteSpace=wrap;rounded=0;" vertex="1" parent="n9SyXKmSAYaJPbStBQAH-44">
          <mxGeometry x="160" y="90" width="100" height="30" as="geometry" />
        </mxCell>
        <mxCell id="n9SyXKmSAYaJPbStBQAH-77" value="death" style="text;html=1;align=center;verticalAlign=middle;whiteSpace=wrap;rounded=0;" vertex="1" parent="n9SyXKmSAYaJPbStBQAH-44">
          <mxGeometry x="170" y="290" width="60" height="30" as="geometry" />
        </mxCell>
        <mxCell id="n9SyXKmSAYaJPbStBQAH-78" value="char_pos" style="text;html=1;align=center;verticalAlign=middle;whiteSpace=wrap;rounded=0;" vertex="1" parent="n9SyXKmSAYaJPbStBQAH-44">
          <mxGeometry x="180" y="340" width="60" height="30" as="geometry" />
        </mxCell>
        <mxCell id="n9SyXKmSAYaJPbStBQAH-19" value="Blocking Map (RAM)" style="verticalAlign=top;align=left;spacingTop=8;spacingLeft=2;spacingRight=12;shape=cube;size=10;direction=south;fontStyle=4;html=1;whiteSpace=wrap;" vertex="1" parent="n9SyXKmSAYaJPbStBQAH-44">
          <mxGeometry x="30" y="440" width="100" height="60" as="geometry" />
        </mxCell>
        <mxCell id="n9SyXKmSAYaJPbStBQAH-109" style="edgeStyle=orthogonalEdgeStyle;rounded=0;orthogonalLoop=1;jettySize=auto;html=1;exitX=0;exitY=0;exitDx=35;exitDy=100;exitPerimeter=0;entryX=0.75;entryY=0;entryDx=0;entryDy=0;" edge="1" parent="1" source="n9SyXKmSAYaJPbStBQAH-47" target="n9SyXKmSAYaJPbStBQAH-42">
          <mxGeometry relative="1" as="geometry">
            <Array as="points">
              <mxPoint x="1310" y="470" />
              <mxPoint x="1095" y="470" />
            </Array>
          </mxGeometry>
        </mxCell>
        <mxCell id="n9SyXKmSAYaJPbStBQAH-47" value="Background&lt;div&gt;(RAM)&lt;/div&gt;" style="verticalAlign=top;align=left;spacingTop=8;spacingLeft=2;spacingRight=12;shape=cube;size=10;direction=south;fontStyle=4;html=1;whiteSpace=wrap;" vertex="1" parent="1">
          <mxGeometry x="1310" y="430" width="100" height="60" as="geometry" />
        </mxCell>
        <mxCell id="n9SyXKmSAYaJPbStBQAH-86" style="edgeStyle=orthogonalEdgeStyle;rounded=0;orthogonalLoop=1;jettySize=auto;html=1;exitX=0.5;exitY=1;exitDx=0;exitDy=0;entryX=0.25;entryY=0;entryDx=0;entryDy=0;" edge="1" parent="1" source="n9SyXKmSAYaJPbStBQAH-52" target="n9SyXKmSAYaJPbStBQAH-43">
          <mxGeometry relative="1" as="geometry">
            <Array as="points">
              <mxPoint x="1080" y="370" />
              <mxPoint x="1045" y="370" />
            </Array>
          </mxGeometry>
        </mxCell>
        <mxCell id="n9SyXKmSAYaJPbStBQAH-52" value="Object Sprites (RAM)" style="swimlane;whiteSpace=wrap;html=1;" vertex="1" parent="1">
          <mxGeometry x="890" y="140" width="380" height="200" as="geometry">
            <mxRectangle x="560" y="10" width="80" height="30" as="alternateBounds" />
          </mxGeometry>
        </mxCell>
        <mxCell id="n9SyXKmSAYaJPbStBQAH-26" value="star_spr (RAM)" style="verticalAlign=top;align=left;spacingTop=8;spacingLeft=2;spacingRight=12;shape=cube;size=10;direction=south;fontStyle=4;html=1;whiteSpace=wrap;" vertex="1" parent="n9SyXKmSAYaJPbStBQAH-52">
          <mxGeometry x="20" y="40" width="100" height="60" as="geometry" />
        </mxCell>
        <mxCell id="n9SyXKmSAYaJPbStBQAH-88" value="goomba_spr&lt;div&gt;(RAM)&lt;br&gt;&lt;/div&gt;" style="verticalAlign=top;align=left;spacingTop=8;spacingLeft=2;spacingRight=12;shape=cube;size=10;direction=south;fontStyle=4;html=1;whiteSpace=wrap;" vertex="1" parent="n9SyXKmSAYaJPbStBQAH-52">
          <mxGeometry x="20" y="120" width="100" height="60" as="geometry" />
        </mxCell>
        <mxCell id="n9SyXKmSAYaJPbStBQAH-89" value="ice_mushroom&lt;div&gt;spr&amp;nbsp;&lt;span style=&quot;background-color: initial;&quot;&gt;(RAM)&lt;/span&gt;&lt;/div&gt;" style="verticalAlign=top;align=left;spacingTop=8;spacingLeft=2;spacingRight=12;shape=cube;size=10;direction=south;fontStyle=4;html=1;whiteSpace=wrap;" vertex="1" parent="n9SyXKmSAYaJPbStBQAH-52">
          <mxGeometry x="140" y="40" width="100" height="60" as="geometry" />
        </mxCell>
        <mxCell id="n9SyXKmSAYaJPbStBQAH-90" value="fire_flower_spr&lt;div&gt;(RAM)&lt;br&gt;&lt;/div&gt;" style="verticalAlign=top;align=left;spacingTop=8;spacingLeft=2;spacingRight=12;shape=cube;size=10;direction=south;fontStyle=4;html=1;whiteSpace=wrap;" vertex="1" parent="n9SyXKmSAYaJPbStBQAH-52">
          <mxGeometry x="140" y="120" width="100" height="60" as="geometry" />
        </mxCell>
        <mxCell id="n9SyXKmSAYaJPbStBQAH-91" value="flying_&lt;div&gt;mushroom&lt;span style=&quot;background-color: initial;&quot;&gt;_spr&lt;/span&gt;&lt;/div&gt;&lt;div&gt;(RAM)&lt;span style=&quot;background-color: initial;&quot;&gt;&lt;br&gt;&lt;/span&gt;&lt;/div&gt;" style="verticalAlign=top;align=left;spacingTop=8;spacingLeft=2;spacingRight=12;shape=cube;size=10;direction=south;fontStyle=4;html=1;whiteSpace=wrap;" vertex="1" parent="n9SyXKmSAYaJPbStBQAH-52">
          <mxGeometry x="260" y="40" width="100" height="60" as="geometry" />
        </mxCell>
        <mxCell id="n9SyXKmSAYaJPbStBQAH-92" value="koopa_troopa&lt;div&gt;_spr&amp;nbsp;&lt;span style=&quot;background-color: initial;&quot;&gt;(RAM)&lt;/span&gt;&lt;/div&gt;" style="verticalAlign=top;align=left;spacingTop=8;spacingLeft=2;spacingRight=12;shape=cube;size=10;direction=south;fontStyle=4;html=1;whiteSpace=wrap;" vertex="1" parent="n9SyXKmSAYaJPbStBQAH-52">
          <mxGeometry x="260" y="120" width="100" height="60" as="geometry" />
        </mxCell>
        <mxCell id="n9SyXKmSAYaJPbStBQAH-72" value="" style="shape=waypoint;sketch=0;fillStyle=solid;size=6;pointerEvents=1;points=[];fillColor=none;resizable=0;rotatable=0;perimeter=centerPerimeter;snapToPoint=1;" vertex="1" parent="1">
          <mxGeometry x="350" y="395" width="20" height="20" as="geometry" />
        </mxCell>
        <mxCell id="n9SyXKmSAYaJPbStBQAH-74" value="" style="shape=waypoint;sketch=0;fillStyle=solid;size=6;pointerEvents=1;points=[];fillColor=none;resizable=0;rotatable=0;perimeter=centerPerimeter;snapToPoint=1;" vertex="1" parent="1">
          <mxGeometry x="350" y="450" width="20" height="20" as="geometry" />
        </mxCell>
        <mxCell id="n9SyXKmSAYaJPbStBQAH-82" style="edgeStyle=orthogonalEdgeStyle;rounded=0;orthogonalLoop=1;jettySize=auto;html=1;exitX=1;exitY=0.5;exitDx=0;exitDy=0;entryX=0;entryY=0.75;entryDx=0;entryDy=0;" edge="1" parent="1" source="n9SyXKmSAYaJPbStBQAH-27" target="n9SyXKmSAYaJPbStBQAH-42">
          <mxGeometry relative="1" as="geometry">
            <Array as="points">
              <mxPoint x="620" y="545" />
            </Array>
          </mxGeometry>
        </mxCell>
        <mxCell id="n9SyXKmSAYaJPbStBQAH-87" value="object colors" style="text;html=1;align=center;verticalAlign=middle;resizable=0;points=[];autosize=1;strokeColor=none;fillColor=none;" vertex="1" parent="1">
          <mxGeometry x="989" y="345" width="90" height="30" as="geometry" />
        </mxCell>
        <mxCell id="n9SyXKmSAYaJPbStBQAH-94" value="character color" style="text;html=1;align=center;verticalAlign=middle;resizable=0;points=[];autosize=1;strokeColor=none;fillColor=none;" vertex="1" parent="1">
          <mxGeometry x="1120" y="345" width="100" height="30" as="geometry" />
        </mxCell>
        <mxCell id="n9SyXKmSAYaJPbStBQAH-96" style="edgeStyle=orthogonalEdgeStyle;rounded=0;orthogonalLoop=1;jettySize=auto;html=1;entryX=0;entryY=0.5;entryDx=0;entryDy=0;" edge="1" parent="1" source="n9SyXKmSAYaJPbStBQAH-97">
          <mxGeometry relative="1" as="geometry">
            <mxPoint x="360" y="410" as="sourcePoint" />
            <mxPoint x="1010" y="435" as="targetPoint" />
            <Array as="points">
              <mxPoint x="360" y="435" />
            </Array>
          </mxGeometry>
        </mxCell>
        <mxCell id="n9SyXKmSAYaJPbStBQAH-97" value="" style="shape=waypoint;sketch=0;fillStyle=solid;size=6;pointerEvents=1;points=[];fillColor=none;resizable=0;rotatable=0;perimeter=centerPerimeter;snapToPoint=1;" vertex="1" parent="1">
          <mxGeometry x="350" y="425" width="20" height="20" as="geometry" />
        </mxCell>
        <mxCell id="n9SyXKmSAYaJPbStBQAH-99" style="edgeStyle=orthogonalEdgeStyle;rounded=0;orthogonalLoop=1;jettySize=auto;html=1;exitX=1;exitY=0.5;exitDx=0;exitDy=0;entryX=0;entryY=0.25;entryDx=0;entryDy=0;" edge="1" parent="1" source="n9SyXKmSAYaJPbStBQAH-7" target="n9SyXKmSAYaJPbStBQAH-43">
          <mxGeometry relative="1" as="geometry">
            <Array as="points">
              <mxPoint x="830" y="240" />
              <mxPoint x="830" y="405" />
            </Array>
          </mxGeometry>
        </mxCell>
        <mxCell id="n9SyXKmSAYaJPbStBQAH-100" value="objects_pos" style="text;html=1;align=center;verticalAlign=middle;resizable=0;points=[];autosize=1;strokeColor=none;fillColor=none;" vertex="1" parent="1">
          <mxGeometry x="909" y="382" width="90" height="30" as="geometry" />
        </mxCell>
        <mxCell id="n9SyXKmSAYaJPbStBQAH-101" value="death" style="text;html=1;align=center;verticalAlign=middle;resizable=0;points=[];autosize=1;strokeColor=none;fillColor=none;" vertex="1" parent="1">
          <mxGeometry x="929" y="397" width="50" height="30" as="geometry" />
        </mxCell>
        <mxCell id="n9SyXKmSAYaJPbStBQAH-102" value="char_pos" style="text;html=1;align=center;verticalAlign=middle;resizable=0;points=[];autosize=1;strokeColor=none;fillColor=none;" vertex="1" parent="1">
          <mxGeometry x="919" y="413" width="70" height="30" as="geometry" />
        </mxCell>
        <mxCell id="n9SyXKmSAYaJPbStBQAH-104" value="vga_dat" style="text;html=1;align=center;verticalAlign=middle;resizable=0;points=[];autosize=1;strokeColor=none;fillColor=none;" vertex="1" parent="1">
          <mxGeometry x="979" y="470" width="70" height="30" as="geometry" />
        </mxCell>
        <mxCell id="n9SyXKmSAYaJPbStBQAH-105" value="bg_color" style="text;html=1;align=center;verticalAlign=middle;whiteSpace=wrap;rounded=0;" vertex="1" parent="1">
          <mxGeometry x="1100" y="470" width="60" height="30" as="geometry" />
        </mxCell>
        <mxCell id="n9SyXKmSAYaJPbStBQAH-106" style="edgeStyle=orthogonalEdgeStyle;rounded=0;orthogonalLoop=1;jettySize=auto;html=1;exitX=1;exitY=0.5;exitDx=0;exitDy=0;entryX=1;entryY=0.5;entryDx=0;entryDy=0;entryPerimeter=0;" edge="1" parent="1" source="n9SyXKmSAYaJPbStBQAH-42" target="n9SyXKmSAYaJPbStBQAH-23">
          <mxGeometry relative="1" as="geometry" />
        </mxCell>
        <mxCell id="n9SyXKmSAYaJPbStBQAH-110" value="Star Output" style="rounded=0;whiteSpace=wrap;html=1;" vertex="1" parent="1">
          <mxGeometry x="410" y="690" width="100" height="60" as="geometry" />
        </mxCell>
        <mxCell id="n9SyXKmSAYaJPbStBQAH-111" value="BGM Output" style="rounded=0;whiteSpace=wrap;html=1;" vertex="1" parent="1">
          <mxGeometry x="410" y="770" width="100" height="60" as="geometry" />
        </mxCell>
        <mxCell id="n9SyXKmSAYaJPbStBQAH-112" value="Video Output" style="swimlane;whiteSpace=wrap;html=1;" vertex="1" parent="1">
          <mxGeometry x="860" y="70" width="590" height="560" as="geometry" />
        </mxCell>
        <mxCell id="n9SyXKmSAYaJPbStBQAH-79" value="bg_pos" style="text;html=1;align=center;verticalAlign=middle;whiteSpace=wrap;rounded=0;" vertex="1" parent="n9SyXKmSAYaJPbStBQAH-112">
          <mxGeometry x="82" y="450" width="60" height="30" as="geometry" />
        </mxCell>
        <mxCell id="n9SyXKmSAYaJPbStBQAH-113" value="LED Display" style="html=1;shadow=0;dashed=0;align=center;verticalAlign=middle;shape=mxgraph.arrows2.arrow;dy=0;dx=10;notch=0;direction=west;" vertex="1" parent="1">
          <mxGeometry x="1480" y="720" width="100" height="30" as="geometry" />
        </mxCell>
        <mxCell id="n9SyXKmSAYaJPbStBQAH-114" style="edgeStyle=orthogonalEdgeStyle;rounded=0;orthogonalLoop=1;jettySize=auto;html=1;exitX=1;exitY=0.25;exitDx=0;exitDy=0;entryX=1;entryY=0.5;entryDx=0;entryDy=0;entryPerimeter=0;" edge="1" parent="1" source="n9SyXKmSAYaJPbStBQAH-110" target="n9SyXKmSAYaJPbStBQAH-24">
          <mxGeometry relative="1" as="geometry" />
        </mxCell>
        <mxCell id="n9SyXKmSAYaJPbStBQAH-115" style="edgeStyle=orthogonalEdgeStyle;rounded=0;orthogonalLoop=1;jettySize=auto;html=1;exitX=1;exitY=0.75;exitDx=0;exitDy=0;entryX=1;entryY=0.5;entryDx=0;entryDy=0;entryPerimeter=0;" edge="1" parent="1" source="n9SyXKmSAYaJPbStBQAH-110" target="n9SyXKmSAYaJPbStBQAH-113">
          <mxGeometry relative="1" as="geometry" />
        </mxCell>
        <mxCell id="n9SyXKmSAYaJPbStBQAH-116" style="edgeStyle=orthogonalEdgeStyle;rounded=0;orthogonalLoop=1;jettySize=auto;html=1;exitX=1;exitY=0.5;exitDx=0;exitDy=0;entryX=1;entryY=0.5;entryDx=0;entryDy=0;entryPerimeter=0;" edge="1" parent="1" source="n9SyXKmSAYaJPbStBQAH-111" target="n9SyXKmSAYaJPbStBQAH-25">
          <mxGeometry relative="1" as="geometry" />
        </mxCell>
        <mxCell id="n9SyXKmSAYaJPbStBQAH-118" value="star_cnt" style="text;html=1;align=center;verticalAlign=middle;resizable=0;points=[];autosize=1;strokeColor=none;fillColor=none;" vertex="1" parent="1">
          <mxGeometry x="450" y="640" width="70" height="30" as="geometry" />
        </mxCell>
      </root>
    </mxGraphModel>
  </diagram>
</mxfile>
